<?xml version="1.0" encoding="utf-8" standalone="no"?>
<!DOCTYPE svg PUBLIC "-//W3C//DTD SVG 1.1//EN"
  "http://www.w3.org/Graphics/SVG/1.1/DTD/svg11.dtd">
<svg xmlns:xlink="http://www.w3.org/1999/xlink" width="628.2pt" height="347.04pt" viewBox="0 0 628.2 347.04" xmlns="http://www.w3.org/2000/svg" version="1.1">
 <metadata>
  <rdf:RDF xmlns:dc="http://purl.org/dc/elements/1.1/" xmlns:cc="http://creativecommons.org/ns#" xmlns:rdf="http://www.w3.org/1999/02/22-rdf-syntax-ns#">
   <cc:Work>
    <dc:type rdf:resource="http://purl.org/dc/dcmitype/StillImage"/>
    <dc:date>2025-10-28T18:46:17.254555</dc:date>
    <dc:format>image/svg+xml</dc:format>
    <dc:creator>
     <cc:Agent>
      <dc:title>Matplotlib v3.6.3, https://matplotlib.org/</dc:title>
     </cc:Agent>
    </dc:creator>
   </cc:Work>
  </rdf:RDF>
 </metadata>
 <defs>
  <style type="text/css">*{stroke-linejoin: round; stroke-linecap: butt}</style>
 </defs>
 <g id="figure_1">
  <g id="patch_1">
   <path d="M 0 347.04 
L 628.2 347.04 
L 628.2 -0 
L 0 -0 
z
" style="fill: #ffffff"/>
  </g>
  <g id="axes_1">
   <g id="patch_2">
    <path d="M 25.614 90.36 
L 148.374 90.36 
L 148.374 34.92 
L 25.614 34.92 
z
" clip-path="url(#p65d0dfa001)" style="fill: #f7f9fc; stroke: #2276ff; stroke-width: 1.8; stroke-linejoin: miter"/>
   </g>
   <g id="patch_3">
    <path d="M 166.788 90.36 
L 295.686 90.36 
L 295.686 34.92 
L 166.788 34.92 
z
" clip-path="url(#p65d0dfa001)" style="fill: #f7f9fc; stroke: #2276ff; stroke-width: 1.8; stroke-linejoin: miter"/>
   </g>
   <g id="patch_4">
    <path d="M 314.1 90.36 
L 442.998 90.36 
L 442.998 34.92 
L 314.1 34.92 
z
" clip-path="url(#p65d0dfa001)" style="fill: #f7f9fc; stroke: #2276ff; stroke-width: 1.8; stroke-linejoin: miter"/>
   </g>
   <g id="patch_5">
    <path d="M 99.27 162.432 
L 228.168 162.432 
L 228.168 106.992 
L 99.27 106.992 
z
" clip-path="url(#p65d0dfa001)" style="fill: #f7f9fc; stroke: #1b1e26; stroke-width: 1.8; stroke-linejoin: miter"/>
   </g>
   <g id="patch_6">
    <path d="M 246.582 162.432 
L 369.342 162.432 
L 369.342 106.992 
L 246.582 106.992 
z
" clip-path="url(#p65d0dfa001)" style="fill: #f7f9fc; stroke: #1b1e26; stroke-width: 1.8; stroke-linejoin: miter"/>
   </g>
   <g id="patch_7">
    <path d="M 381.618 162.432 
L 516.654 162.432 
L 516.654 106.992 
L 381.618 106.992 
z
" clip-path="url(#p65d0dfa001)" style="fill: #f7f9fc; stroke: #1b1e26; stroke-width: 1.8; stroke-linejoin: miter"/>
   </g>
   <g id="patch_8">
    <path d="M 129.96 234.504 
L 277.272 234.504 
L 277.272 179.064 
L 129.96 179.064 
z
" clip-path="url(#p65d0dfa001)" style="fill: #f7f9fc; stroke: #1b1e26; stroke-width: 1.8; stroke-linejoin: miter"/>
   </g>
   <g id="patch_9">
    <path d="M 295.686 234.504 
L 442.998 234.504 
L 442.998 179.064 
L 295.686 179.064 
z
" clip-path="url(#p65d0dfa001)" style="fill: #f7f9fc; stroke: #1b1e26; stroke-width: 1.8; stroke-linejoin: miter"/>
   </g>
   <g id="patch_10">
    <path d="M 68.58 306.576 
L 215.892 306.576 
L 215.892 251.136 
L 68.58 251.136 
z
" clip-path="url(#p65d0dfa001)" style="fill: #f7f9fc; stroke: #2276ff; stroke-width: 1.8; stroke-linejoin: miter"/>
   </g>
   <g id="patch_11">
    <path d="M 240.444 306.576 
L 387.756 306.576 
L 387.756 251.136 
L 240.444 251.136 
z
" clip-path="url(#p65d0dfa001)" style="fill: #f7f9fc; stroke: #2276ff; stroke-width: 1.8; stroke-linejoin: miter"/>
   </g>
   <g id="patch_12">
    <path d="M 412.308 306.576 
L 559.62 306.576 
L 559.62 251.136 
L 412.308 251.136 
z
" clip-path="url(#p65d0dfa001)" style="fill: #f7f9fc; stroke: #2276ff; stroke-width: 1.8; stroke-linejoin: miter"/>
   </g>
   <g id="patch_13">
    <path d="M 528.93 217.872 
L 590.31 217.872 
L 590.31 173.52 
L 528.93 173.52 
z
" clip-path="url(#p65d0dfa001)" style="fill: #f7f9fc; stroke: #1b1e26; stroke-width: 1.8; stroke-linejoin: miter"/>
   </g>
   <g id="patch_14">
    <path d="M 88.858552 91.081762 
Q 108.477319 98.676123 126.427857 105.624719 
" clip-path="url(#p65d0dfa001)" style="fill: none; stroke: #1b1e26; stroke-width: 1.6; stroke-linecap: round"/>
    <path d="M 126.127029 105.293808 
L 126.427857 105.624719 
L 125.982631 105.666835 
" clip-path="url(#p65d0dfa001)" style="fill: none; stroke: #1b1e26; stroke-width: 1.6; stroke-linecap: round"/>
   </g>
   <g id="patch_15">
    <path d="M 226.270854 91.002582 
Q 203.613927 98.676702 182.651303 105.776946 
" clip-path="url(#p65d0dfa001)" style="fill: none; stroke: #1b1e26; stroke-width: 1.6; stroke-linecap: round"/>
    <path d="M 183.094322 105.838052 
L 182.651303 105.776946 
L 182.966 105.459194 
" clip-path="url(#p65d0dfa001)" style="fill: none; stroke: #1b1e26; stroke-width: 1.6; stroke-linecap: round"/>
   </g>
   <g id="patch_16">
    <path d="M 385.76248 90.523691 
Q 286.478371 98.676052 188.977116 106.68202 
" clip-path="url(#p65d0dfa001)" style="fill: none; stroke: #1b1e26; stroke-width: 1.6; stroke-linecap: round"/>
    <path d="M 189.392142 106.848615 
L 188.977116 106.68202 
L 189.359407 106.449956 
" clip-path="url(#p65d0dfa001)" style="fill: none; stroke: #1b1e26; stroke-width: 1.6; stroke-linecap: round"/>
   </g>
   <g id="patch_17">
    <path d="M 168.789668 162.432 
Q 206.686366 162.432 242.794209 162.432 
" clip-path="url(#p65d0dfa001)" style="fill: none; stroke: #1b1e26; stroke-width: 1.6; stroke-linecap: round"/>
    <path d="M 242.394209 162.232 
L 242.794209 162.432 
L 242.394209 162.632 
" clip-path="url(#p65d0dfa001)" style="fill: none; stroke: #1b1e26; stroke-width: 1.6; stroke-linecap: round"/>
   </g>
   <g id="patch_18">
    <path d="M 371.341046 162.432 
Q 375.479678 162.432 377.829455 162.432 
" clip-path="url(#p65d0dfa001)" style="fill: none; stroke: #1b1e26; stroke-width: 1.6; stroke-linecap: round"/>
    <path d="M 377.429455 162.232 
L 377.829455 162.432 
L 377.429455 162.632 
" clip-path="url(#p65d0dfa001)" style="fill: none; stroke: #1b1e26; stroke-width: 1.6; stroke-linecap: round"/>
   </g>
   <g id="patch_19">
    <path d="M 410.311389 162.591123 
Q 307.961911 170.748007 207.395633 178.762777 
" clip-path="url(#p65d0dfa001)" style="fill: none; stroke: #1b1e26; stroke-width: 1.6; stroke-linecap: round"/>
    <path d="M 207.810257 178.930367 
L 207.395633 178.762777 
L 207.778479 178.531631 
" clip-path="url(#p65d0dfa001)" style="fill: none; stroke: #1b1e26; stroke-width: 1.6; stroke-linecap: round"/>
   </g>
   <g id="patch_20">
    <path d="M 205.613735 234.504 
Q 249.650683 234.504 291.898777 234.504 
" clip-path="url(#p65d0dfa001)" style="fill: none; stroke: #1b1e26; stroke-width: 1.6; stroke-linecap: round"/>
    <path d="M 291.498777 234.304 
L 291.898777 234.504 
L 291.498777 234.704 
" clip-path="url(#p65d0dfa001)" style="fill: none; stroke: #1b1e26; stroke-width: 1.6; stroke-linecap: round"/>
   </g>
   <g id="patch_21">
    <path d="M 373.511861 234.878247 
Q 258.856754 256.680237 145.959012 278.148059 
" clip-path="url(#p65d0dfa001)" style="fill: none; stroke: #1b1e26; stroke-width: 1.6; stroke-linecap: round"/>
    <path d="M 146.389332 278.269816 
L 145.959012 278.148059 
L 146.31461 277.876857 
" clip-path="url(#p65d0dfa001)" style="fill: none; stroke: #1b1e26; stroke-width: 1.6; stroke-linecap: round"/>
   </g>
   <g id="patch_22">
    <path d="M 144.235421 306.576 
Q 197.476228 306.576 248.92818 306.576 
" clip-path="url(#p65d0dfa001)" style="fill: none; stroke: #1b1e26; stroke-width: 1.6; stroke-linecap: round"/>
    <path d="M 248.52818 306.376 
L 248.92818 306.576 
L 248.52818 306.776 
" clip-path="url(#p65d0dfa001)" style="fill: none; stroke: #1b1e26; stroke-width: 1.6; stroke-linecap: round"/>
   </g>
   <g id="patch_23">
    <path d="M 144.239354 306.576 
Q 283.41283 306.576 420.79745 306.576 
" clip-path="url(#p65d0dfa001)" style="fill: none; stroke: #1b1e26; stroke-width: 1.6; stroke-linecap: round"/>
    <path d="M 420.39745 306.376 
L 420.79745 306.576 
L 420.39745 306.776 
" clip-path="url(#p65d0dfa001)" style="fill: none; stroke: #1b1e26; stroke-width: 1.6; stroke-linecap: round"/>
   </g>
   <g id="patch_24">
    <path d="M 383.564597 162.871554 
Q 455.273553 179.063899 525.237586 194.862229 
" clip-path="url(#p65d0dfa001)" style="fill: none; stroke: #1b1e26; stroke-width: 1.6; stroke-linecap: round"/>
    <path d="M 524.891462 194.579037 
L 525.237586 194.862229 
L 524.803358 194.969213 
" clip-path="url(#p65d0dfa001)" style="fill: none; stroke: #1b1e26; stroke-width: 1.6; stroke-linecap: round"/>
   </g>
   <g id="patch_25">
    <path d="M 297.661257 234.175349 
Q 412.309306 215.099783 525.19276 196.317816 
" clip-path="url(#p65d0dfa001)" style="fill: none; stroke: #1b1e26; stroke-width: 1.6; stroke-linecap: round"/>
    <path d="M 524.765358 196.186179 
L 525.19276 196.317816 
L 524.831009 196.580755 
" clip-path="url(#p65d0dfa001)" style="fill: none; stroke: #1b1e26; stroke-width: 1.6; stroke-linecap: round"/>
   </g>
   <g id="text_1">
    <!-- CityScope™ — Architecture -->
    <g style="fill: #2276ff" transform="translate(217.757031 24.368725) scale(0.14 -0.14)">
     <defs>
      <path id="DejaVuSans-43" d="M 4122 4306 
L 4122 3641 
Q 3803 3938 3442 4084 
Q 3081 4231 2675 4231 
Q 1875 4231 1450 3742 
Q 1025 3253 1025 2328 
Q 1025 1406 1450 917 
Q 1875 428 2675 428 
Q 3081 428 3442 575 
Q 3803 722 4122 1019 
L 4122 359 
Q 3791 134 3420 21 
Q 3050 -91 2638 -91 
Q 1578 -91 968 557 
Q 359 1206 359 2328 
Q 359 3453 968 4101 
Q 1578 4750 2638 4750 
Q 3056 4750 3426 4639 
Q 3797 4528 4122 4306 
z
" transform="scale(0.015625)"/>
      <path id="DejaVuSans-69" d="M 603 3500 
L 1178 3500 
L 1178 0 
L 603 0 
L 603 3500 
z
M 603 4863 
L 1178 4863 
L 1178 4134 
L 603 4134 
L 603 4863 
z
" transform="scale(0.015625)"/>
      <path id="DejaVuSans-74" d="M 1172 4494 
L 1172 3500 
L 2356 3500 
L 2356 3053 
L 1172 3053 
L 1172 1153 
Q 1172 725 1289 603 
Q 1406 481 1766 481 
L 2356 481 
L 2356 0 
L 1766 0 
Q 1100 0 847 248 
Q 594 497 594 1153 
L 594 3053 
L 172 3053 
L 172 3500 
L 594 3500 
L 594 4494 
L 1172 4494 
z
" transform="scale(0.015625)"/>
      <path id="DejaVuSans-79" d="M 2059 -325 
Q 1816 -950 1584 -1140 
Q 1353 -1331 966 -1331 
L 506 -1331 
L 506 -850 
L 844 -850 
Q 1081 -850 1212 -737 
Q 1344 -625 1503 -206 
L 1606 56 
L 191 3500 
L 800 3500 
L 1894 763 
L 2988 3500 
L 3597 3500 
L 2059 -325 
z
" transform="scale(0.015625)"/>
      <path id="DejaVuSans-53" d="M 3425 4513 
L 3425 3897 
Q 3066 4069 2747 4153 
Q 2428 4238 2131 4238 
Q 1616 4238 1336 4038 
Q 1056 3838 1056 3469 
Q 1056 3159 1242 3001 
Q 1428 2844 1947 2747 
L 2328 2669 
Q 3034 2534 3370 2195 
Q 3706 1856 3706 1288 
Q 3706 609 3251 259 
Q 2797 -91 1919 -91 
Q 1588 -91 1214 -16 
Q 841 59 441 206 
L 441 856 
Q 825 641 1194 531 
Q 1563 422 1919 422 
Q 2459 422 2753 634 
Q 3047 847 3047 1241 
Q 3047 1584 2836 1778 
Q 2625 1972 2144 2069 
L 1759 2144 
Q 1053 2284 737 2584 
Q 422 2884 422 3419 
Q 422 4038 858 4394 
Q 1294 4750 2059 4750 
Q 2388 4750 2728 4690 
Q 3069 4631 3425 4513 
z
" transform="scale(0.015625)"/>
      <path id="DejaVuSans-63" d="M 3122 3366 
L 3122 2828 
Q 2878 2963 2633 3030 
Q 2388 3097 2138 3097 
Q 1578 3097 1268 2742 
Q 959 2388 959 1747 
Q 959 1106 1268 751 
Q 1578 397 2138 397 
Q 2388 397 2633 464 
Q 2878 531 3122 666 
L 3122 134 
Q 2881 22 2623 -34 
Q 2366 -91 2075 -91 
Q 1284 -91 818 406 
Q 353 903 353 1747 
Q 353 2603 823 3093 
Q 1294 3584 2113 3584 
Q 2378 3584 2631 3529 
Q 2884 3475 3122 3366 
z
" transform="scale(0.015625)"/>
      <path id="DejaVuSans-6f" d="M 1959 3097 
Q 1497 3097 1228 2736 
Q 959 2375 959 1747 
Q 959 1119 1226 758 
Q 1494 397 1959 397 
Q 2419 397 2687 759 
Q 2956 1122 2956 1747 
Q 2956 2369 2687 2733 
Q 2419 3097 1959 3097 
z
M 1959 3584 
Q 2709 3584 3137 3096 
Q 3566 2609 3566 1747 
Q 3566 888 3137 398 
Q 2709 -91 1959 -91 
Q 1206 -91 779 398 
Q 353 888 353 1747 
Q 353 2609 779 3096 
Q 1206 3584 1959 3584 
z
" transform="scale(0.015625)"/>
      <path id="DejaVuSans-70" d="M 1159 525 
L 1159 -1331 
L 581 -1331 
L 581 3500 
L 1159 3500 
L 1159 2969 
Q 1341 3281 1617 3432 
Q 1894 3584 2278 3584 
Q 2916 3584 3314 3078 
Q 3713 2572 3713 1747 
Q 3713 922 3314 415 
Q 2916 -91 2278 -91 
Q 1894 -91 1617 61 
Q 1341 213 1159 525 
z
M 3116 1747 
Q 3116 2381 2855 2742 
Q 2594 3103 2138 3103 
Q 1681 3103 1420 2742 
Q 1159 2381 1159 1747 
Q 1159 1113 1420 752 
Q 1681 391 2138 391 
Q 2594 391 2855 752 
Q 3116 1113 3116 1747 
z
" transform="scale(0.015625)"/>
      <path id="DejaVuSans-65" d="M 3597 1894 
L 3597 1613 
L 953 1613 
Q 991 1019 1311 708 
Q 1631 397 2203 397 
Q 2534 397 2845 478 
Q 3156 559 3463 722 
L 3463 178 
Q 3153 47 2828 -22 
Q 2503 -91 2169 -91 
Q 1331 -91 842 396 
Q 353 884 353 1716 
Q 353 2575 817 3079 
Q 1281 3584 2069 3584 
Q 2775 3584 3186 3129 
Q 3597 2675 3597 1894 
z
M 3022 2063 
Q 3016 2534 2758 2815 
Q 2500 3097 2075 3097 
Q 1594 3097 1305 2825 
Q 1016 2553 972 2059 
L 3022 2063 
z
" transform="scale(0.015625)"/>
      <path id="DejaVuSans-2122" d="M 3431 4666 
L 3975 3866 
L 4488 4666 
L 5019 4666 
L 5019 2859 
L 4666 2859 
L 4666 4372 
L 4056 3425 
L 3884 3425 
L 3250 4372 
L 3250 2859 
L 2894 2859 
L 2894 4666 
L 3431 4666 
z
M 2541 4666 
L 2541 4372 
L 1906 4372 
L 1906 2859 
L 1550 2859 
L 1550 4372 
L 922 4372 
L 922 4666 
L 2541 4666 
z
" transform="scale(0.015625)"/>
      <path id="DejaVuSans-20" transform="scale(0.015625)"/>
      <path id="DejaVuSans-2014" d="M 313 1978 
L 6088 1978 
L 6088 1528 
L 313 1528 
L 313 1978 
z
" transform="scale(0.015625)"/>
      <path id="DejaVuSans-41" d="M 2188 4044 
L 1331 1722 
L 3047 1722 
L 2188 4044 
z
M 1831 4666 
L 2547 4666 
L 4325 0 
L 3669 0 
L 3244 1197 
L 1141 1197 
L 716 0 
L 50 0 
L 1831 4666 
z
" transform="scale(0.015625)"/>
      <path id="DejaVuSans-72" d="M 2631 2963 
Q 2534 3019 2420 3045 
Q 2306 3072 2169 3072 
Q 1681 3072 1420 2755 
Q 1159 2438 1159 1844 
L 1159 0 
L 581 0 
L 581 3500 
L 1159 3500 
L 1159 2956 
Q 1341 3275 1631 3429 
Q 1922 3584 2338 3584 
Q 2397 3584 2469 3576 
Q 2541 3569 2628 3553 
L 2631 2963 
z
" transform="scale(0.015625)"/>
      <path id="DejaVuSans-68" d="M 3513 2113 
L 3513 0 
L 2938 0 
L 2938 2094 
Q 2938 2591 2744 2837 
Q 2550 3084 2163 3084 
Q 1697 3084 1428 2787 
Q 1159 2491 1159 1978 
L 1159 0 
L 581 0 
L 581 4863 
L 1159 4863 
L 1159 2956 
Q 1366 3272 1645 3428 
Q 1925 3584 2291 3584 
Q 2894 3584 3203 3211 
Q 3513 2838 3513 2113 
z
" transform="scale(0.015625)"/>
      <path id="DejaVuSans-75" d="M 544 1381 
L 544 3500 
L 1119 3500 
L 1119 1403 
Q 1119 906 1312 657 
Q 1506 409 1894 409 
Q 2359 409 2629 706 
Q 2900 1003 2900 1516 
L 2900 3500 
L 3475 3500 
L 3475 0 
L 2900 0 
L 2900 538 
Q 2691 219 2414 64 
Q 2138 -91 1772 -91 
Q 1169 -91 856 284 
Q 544 659 544 1381 
z
M 1991 3584 
L 1991 3584 
z
" transform="scale(0.015625)"/>
     </defs>
     <use xlink:href="#DejaVuSans-43"/>
     <use xlink:href="#DejaVuSans-69" x="69.824219"/>
     <use xlink:href="#DejaVuSans-74" x="97.607422"/>
     <use xlink:href="#DejaVuSans-79" x="136.816406"/>
     <use xlink:href="#DejaVuSans-53" x="195.996094"/>
     <use xlink:href="#DejaVuSans-63" x="259.472656"/>
     <use xlink:href="#DejaVuSans-6f" x="314.453125"/>
     <use xlink:href="#DejaVuSans-70" x="375.634766"/>
     <use xlink:href="#DejaVuSans-65" x="439.111328"/>
     <use xlink:href="#DejaVuSans-2122" x="500.634766"/>
     <use xlink:href="#DejaVuSans-20" x="600.634766"/>
     <use xlink:href="#DejaVuSans-2014" x="632.421875"/>
     <use xlink:href="#DejaVuSans-20" x="732.421875"/>
     <use xlink:href="#DejaVuSans-41" x="764.208984"/>
     <use xlink:href="#DejaVuSans-72" x="832.617188"/>
     <use xlink:href="#DejaVuSans-63" x="871.480469"/>
     <use xlink:href="#DejaVuSans-68" x="926.460938"/>
     <use xlink:href="#DejaVuSans-69" x="989.839844"/>
     <use xlink:href="#DejaVuSans-74" x="1017.623047"/>
     <use xlink:href="#DejaVuSans-65" x="1056.832031"/>
     <use xlink:href="#DejaVuSans-63" x="1118.355469"/>
     <use xlink:href="#DejaVuSans-74" x="1173.335938"/>
     <use xlink:href="#DejaVuSans-75" x="1212.544922"/>
     <use xlink:href="#DejaVuSans-72" x="1275.923828"/>
     <use xlink:href="#DejaVuSans-65" x="1314.787109"/>
    </g>
   </g>
   <g id="text_2">
    <!-- CAD Dispatch -->
    <g style="fill: #1b1e26" transform="translate(52.683063 59.800469) scale(0.1 -0.1)">
     <defs>
      <path id="DejaVuSans-44" d="M 1259 4147 
L 1259 519 
L 2022 519 
Q 2988 519 3436 956 
Q 3884 1394 3884 2338 
Q 3884 3275 3436 3711 
Q 2988 4147 2022 4147 
L 1259 4147 
z
M 628 4666 
L 1925 4666 
Q 3281 4666 3915 4102 
Q 4550 3538 4550 2338 
Q 4550 1131 3912 565 
Q 3275 0 1925 0 
L 628 0 
L 628 4666 
z
" transform="scale(0.015625)"/>
      <path id="DejaVuSans-73" d="M 2834 3397 
L 2834 2853 
Q 2591 2978 2328 3040 
Q 2066 3103 1784 3103 
Q 1356 3103 1142 2972 
Q 928 2841 928 2578 
Q 928 2378 1081 2264 
Q 1234 2150 1697 2047 
L 1894 2003 
Q 2506 1872 2764 1633 
Q 3022 1394 3022 966 
Q 3022 478 2636 193 
Q 2250 -91 1575 -91 
Q 1294 -91 989 -36 
Q 684 19 347 128 
L 347 722 
Q 666 556 975 473 
Q 1284 391 1588 391 
Q 1994 391 2212 530 
Q 2431 669 2431 922 
Q 2431 1156 2273 1281 
Q 2116 1406 1581 1522 
L 1381 1569 
Q 847 1681 609 1914 
Q 372 2147 372 2553 
Q 372 3047 722 3315 
Q 1072 3584 1716 3584 
Q 2034 3584 2315 3537 
Q 2597 3491 2834 3397 
z
" transform="scale(0.015625)"/>
      <path id="DejaVuSans-61" d="M 2194 1759 
Q 1497 1759 1228 1600 
Q 959 1441 959 1056 
Q 959 750 1161 570 
Q 1363 391 1709 391 
Q 2188 391 2477 730 
Q 2766 1069 2766 1631 
L 2766 1759 
L 2194 1759 
z
M 3341 1997 
L 3341 0 
L 2766 0 
L 2766 531 
Q 2569 213 2275 61 
Q 1981 -91 1556 -91 
Q 1019 -91 701 211 
Q 384 513 384 1019 
Q 384 1609 779 1909 
Q 1175 2209 1959 2209 
L 2766 2209 
L 2766 2266 
Q 2766 2663 2505 2880 
Q 2244 3097 1772 3097 
Q 1472 3097 1187 3025 
Q 903 2953 641 2809 
L 641 3341 
Q 956 3463 1253 3523 
Q 1550 3584 1831 3584 
Q 2591 3584 2966 3190 
Q 3341 2797 3341 1997 
z
" transform="scale(0.015625)"/>
     </defs>
     <use xlink:href="#DejaVuSans-43"/>
     <use xlink:href="#DejaVuSans-41" x="69.824219"/>
     <use xlink:href="#DejaVuSans-44" x="138.232422"/>
     <use xlink:href="#DejaVuSans-20" x="215.234375"/>
     <use xlink:href="#DejaVuSans-44" x="247.021484"/>
     <use xlink:href="#DejaVuSans-69" x="324.023438"/>
     <use xlink:href="#DejaVuSans-73" x="351.806641"/>
     <use xlink:href="#DejaVuSans-70" x="403.90625"/>
     <use xlink:href="#DejaVuSans-61" x="467.382812"/>
     <use xlink:href="#DejaVuSans-74" x="528.662109"/>
     <use xlink:href="#DejaVuSans-63" x="567.871094"/>
     <use xlink:href="#DejaVuSans-68" x="622.851562"/>
    </g>
    <!-- Integration (Bi‑Directional) -->
    <g style="fill: #1b1e26" transform="translate(20.290094 70.998281) scale(0.1 -0.1)">
     <defs>
      <path id="DejaVuSans-49" d="M 628 4666 
L 1259 4666 
L 1259 0 
L 628 0 
L 628 4666 
z
" transform="scale(0.015625)"/>
      <path id="DejaVuSans-6e" d="M 3513 2113 
L 3513 0 
L 2938 0 
L 2938 2094 
Q 2938 2591 2744 2837 
Q 2550 3084 2163 3084 
Q 1697 3084 1428 2787 
Q 1159 2491 1159 1978 
L 1159 0 
L 581 0 
L 581 3500 
L 1159 3500 
L 1159 2956 
Q 1366 3272 1645 3428 
Q 1925 3584 2291 3584 
Q 2894 3584 3203 3211 
Q 3513 2838 3513 2113 
z
" transform="scale(0.015625)"/>
      <path id="DejaVuSans-67" d="M 2906 1791 
Q 2906 2416 2648 2759 
Q 2391 3103 1925 3103 
Q 1463 3103 1205 2759 
Q 947 2416 947 1791 
Q 947 1169 1205 825 
Q 1463 481 1925 481 
Q 2391 481 2648 825 
Q 2906 1169 2906 1791 
z
M 3481 434 
Q 3481 -459 3084 -895 
Q 2688 -1331 1869 -1331 
Q 1566 -1331 1297 -1286 
Q 1028 -1241 775 -1147 
L 775 -588 
Q 1028 -725 1275 -790 
Q 1522 -856 1778 -856 
Q 2344 -856 2625 -561 
Q 2906 -266 2906 331 
L 2906 616 
Q 2728 306 2450 153 
Q 2172 0 1784 0 
Q 1141 0 747 490 
Q 353 981 353 1791 
Q 353 2603 747 3093 
Q 1141 3584 1784 3584 
Q 2172 3584 2450 3431 
Q 2728 3278 2906 2969 
L 2906 3500 
L 3481 3500 
L 3481 434 
z
" transform="scale(0.015625)"/>
      <path id="DejaVuSans-28" d="M 1984 4856 
Q 1566 4138 1362 3434 
Q 1159 2731 1159 2009 
Q 1159 1288 1364 580 
Q 1569 -128 1984 -844 
L 1484 -844 
Q 1016 -109 783 600 
Q 550 1309 550 2009 
Q 550 2706 781 3412 
Q 1013 4119 1484 4856 
L 1984 4856 
z
" transform="scale(0.015625)"/>
      <path id="DejaVuSans-42" d="M 1259 2228 
L 1259 519 
L 2272 519 
Q 2781 519 3026 730 
Q 3272 941 3272 1375 
Q 3272 1813 3026 2020 
Q 2781 2228 2272 2228 
L 1259 2228 
z
M 1259 4147 
L 1259 2741 
L 2194 2741 
Q 2656 2741 2882 2914 
Q 3109 3088 3109 3444 
Q 3109 3797 2882 3972 
Q 2656 4147 2194 4147 
L 1259 4147 
z
M 628 4666 
L 2241 4666 
Q 2963 4666 3353 4366 
Q 3744 4066 3744 3513 
Q 3744 3084 3544 2831 
Q 3344 2578 2956 2516 
Q 3422 2416 3680 2098 
Q 3938 1781 3938 1306 
Q 3938 681 3513 340 
Q 3088 0 2303 0 
L 628 0 
L 628 4666 
z
" transform="scale(0.015625)"/>
      <path id="DejaVuSans-2011" d="M 313 2009 
L 1997 2009 
L 1997 1497 
L 313 1497 
L 313 2009 
z
" transform="scale(0.015625)"/>
      <path id="DejaVuSans-6c" d="M 603 4863 
L 1178 4863 
L 1178 0 
L 603 0 
L 603 4863 
z
" transform="scale(0.015625)"/>
      <path id="DejaVuSans-29" d="M 513 4856 
L 1013 4856 
Q 1481 4119 1714 3412 
Q 1947 2706 1947 2009 
Q 1947 1309 1714 600 
Q 1481 -109 1013 -844 
L 513 -844 
Q 928 -128 1133 580 
Q 1338 1288 1338 2009 
Q 1338 2731 1133 3434 
Q 928 4138 513 4856 
z
" transform="scale(0.015625)"/>
     </defs>
     <use xlink:href="#DejaVuSans-49"/>
     <use xlink:href="#DejaVuSans-6e" x="29.492188"/>
     <use xlink:href="#DejaVuSans-74" x="92.871094"/>
     <use xlink:href="#DejaVuSans-65" x="132.080078"/>
     <use xlink:href="#DejaVuSans-67" x="193.603516"/>
     <use xlink:href="#DejaVuSans-72" x="257.080078"/>
     <use xlink:href="#DejaVuSans-61" x="298.193359"/>
     <use xlink:href="#DejaVuSans-74" x="359.472656"/>
     <use xlink:href="#DejaVuSans-69" x="398.681641"/>
     <use xlink:href="#DejaVuSans-6f" x="426.464844"/>
     <use xlink:href="#DejaVuSans-6e" x="487.646484"/>
     <use xlink:href="#DejaVuSans-20" x="551.025391"/>
     <use xlink:href="#DejaVuSans-28" x="582.8125"/>
     <use xlink:href="#DejaVuSans-42" x="621.826172"/>
     <use xlink:href="#DejaVuSans-69" x="690.429688"/>
     <use xlink:href="#DejaVuSans-2011" x="718.212891"/>
     <use xlink:href="#DejaVuSans-44" x="754.296875"/>
     <use xlink:href="#DejaVuSans-69" x="831.298828"/>
     <use xlink:href="#DejaVuSans-72" x="859.082031"/>
     <use xlink:href="#DejaVuSans-65" x="897.945312"/>
     <use xlink:href="#DejaVuSans-63" x="959.46875"/>
     <use xlink:href="#DejaVuSans-74" x="1014.449219"/>
     <use xlink:href="#DejaVuSans-69" x="1053.658203"/>
     <use xlink:href="#DejaVuSans-6f" x="1081.441406"/>
     <use xlink:href="#DejaVuSans-6e" x="1142.623047"/>
     <use xlink:href="#DejaVuSans-61" x="1206.001953"/>
     <use xlink:href="#DejaVuSans-6c" x="1267.28125"/>
     <use xlink:href="#DejaVuSans-29" x="1295.064453"/>
    </g>
   </g>
   <g id="text_3">
    <!-- Traffic / Weather -->
    <g style="fill: #1b1e26" transform="translate(190.228406 59.800469) scale(0.1 -0.1)">
     <defs>
      <path id="DejaVuSans-54" d="M -19 4666 
L 3928 4666 
L 3928 4134 
L 2272 4134 
L 2272 0 
L 1638 0 
L 1638 4134 
L -19 4134 
L -19 4666 
z
" transform="scale(0.015625)"/>
      <path id="DejaVuSans-66" d="M 2375 4863 
L 2375 4384 
L 1825 4384 
Q 1516 4384 1395 4259 
Q 1275 4134 1275 3809 
L 1275 3500 
L 2222 3500 
L 2222 3053 
L 1275 3053 
L 1275 0 
L 697 0 
L 697 3053 
L 147 3053 
L 147 3500 
L 697 3500 
L 697 3744 
Q 697 4328 969 4595 
Q 1241 4863 1831 4863 
L 2375 4863 
z
" transform="scale(0.015625)"/>
      <path id="DejaVuSans-2f" d="M 1625 4666 
L 2156 4666 
L 531 -594 
L 0 -594 
L 1625 4666 
z
" transform="scale(0.015625)"/>
      <path id="DejaVuSans-57" d="M 213 4666 
L 850 4666 
L 1831 722 
L 2809 4666 
L 3519 4666 
L 4500 722 
L 5478 4666 
L 6119 4666 
L 4947 0 
L 4153 0 
L 3169 4050 
L 2175 0 
L 1381 0 
L 213 4666 
z
" transform="scale(0.015625)"/>
     </defs>
     <use xlink:href="#DejaVuSans-54"/>
     <use xlink:href="#DejaVuSans-72" x="46.333984"/>
     <use xlink:href="#DejaVuSans-61" x="87.447266"/>
     <use xlink:href="#DejaVuSans-66" x="148.726562"/>
     <use xlink:href="#DejaVuSans-66" x="183.931641"/>
     <use xlink:href="#DejaVuSans-69" x="219.136719"/>
     <use xlink:href="#DejaVuSans-63" x="246.919922"/>
     <use xlink:href="#DejaVuSans-20" x="301.900391"/>
     <use xlink:href="#DejaVuSans-2f" x="333.6875"/>
     <use xlink:href="#DejaVuSans-20" x="367.378906"/>
     <use xlink:href="#DejaVuSans-57" x="399.166016"/>
     <use xlink:href="#DejaVuSans-65" x="492.167969"/>
     <use xlink:href="#DejaVuSans-61" x="553.691406"/>
     <use xlink:href="#DejaVuSans-74" x="614.970703"/>
     <use xlink:href="#DejaVuSans-68" x="654.179688"/>
     <use xlink:href="#DejaVuSans-65" x="717.558594"/>
     <use xlink:href="#DejaVuSans-72" x="779.082031"/>
    </g>
    <!-- (Live APIs) -->
    <g style="fill: #1b1e26" transform="translate(205.020594 70.998281) scale(0.1 -0.1)">
     <defs>
      <path id="DejaVuSans-4c" d="M 628 4666 
L 1259 4666 
L 1259 531 
L 3531 531 
L 3531 0 
L 628 0 
L 628 4666 
z
" transform="scale(0.015625)"/>
      <path id="DejaVuSans-76" d="M 191 3500 
L 800 3500 
L 1894 563 
L 2988 3500 
L 3597 3500 
L 2284 0 
L 1503 0 
L 191 3500 
z
" transform="scale(0.015625)"/>
      <path id="DejaVuSans-50" d="M 1259 4147 
L 1259 2394 
L 2053 2394 
Q 2494 2394 2734 2622 
Q 2975 2850 2975 3272 
Q 2975 3691 2734 3919 
Q 2494 4147 2053 4147 
L 1259 4147 
z
M 628 4666 
L 2053 4666 
Q 2838 4666 3239 4311 
Q 3641 3956 3641 3272 
Q 3641 2581 3239 2228 
Q 2838 1875 2053 1875 
L 1259 1875 
L 1259 0 
L 628 0 
L 628 4666 
z
" transform="scale(0.015625)"/>
     </defs>
     <use xlink:href="#DejaVuSans-28"/>
     <use xlink:href="#DejaVuSans-4c" x="39.013672"/>
     <use xlink:href="#DejaVuSans-69" x="94.726562"/>
     <use xlink:href="#DejaVuSans-76" x="122.509766"/>
     <use xlink:href="#DejaVuSans-65" x="181.689453"/>
     <use xlink:href="#DejaVuSans-20" x="243.212891"/>
     <use xlink:href="#DejaVuSans-41" x="275"/>
     <use xlink:href="#DejaVuSans-50" x="343.408203"/>
     <use xlink:href="#DejaVuSans-49" x="403.710938"/>
     <use xlink:href="#DejaVuSans-73" x="433.203125"/>
     <use xlink:href="#DejaVuSans-29" x="485.302734"/>
    </g>
   </g>
   <g id="text_4">
    <!-- Events / Sensors -->
    <g style="fill: #1b1e26" transform="translate(337.013844 59.800469) scale(0.1 -0.1)">
     <defs>
      <path id="DejaVuSans-45" d="M 628 4666 
L 3578 4666 
L 3578 4134 
L 1259 4134 
L 1259 2753 
L 3481 2753 
L 3481 2222 
L 1259 2222 
L 1259 531 
L 3634 531 
L 3634 0 
L 628 0 
L 628 4666 
z
" transform="scale(0.015625)"/>
     </defs>
     <use xlink:href="#DejaVuSans-45"/>
     <use xlink:href="#DejaVuSans-76" x="63.183594"/>
     <use xlink:href="#DejaVuSans-65" x="122.363281"/>
     <use xlink:href="#DejaVuSans-6e" x="183.886719"/>
     <use xlink:href="#DejaVuSans-74" x="247.265625"/>
     <use xlink:href="#DejaVuSans-73" x="286.474609"/>
     <use xlink:href="#DejaVuSans-20" x="338.574219"/>
     <use xlink:href="#DejaVuSans-2f" x="370.361328"/>
     <use xlink:href="#DejaVuSans-20" x="404.052734"/>
     <use xlink:href="#DejaVuSans-53" x="435.839844"/>
     <use xlink:href="#DejaVuSans-65" x="499.316406"/>
     <use xlink:href="#DejaVuSans-6e" x="560.839844"/>
     <use xlink:href="#DejaVuSans-73" x="624.21875"/>
     <use xlink:href="#DejaVuSans-6f" x="676.318359"/>
     <use xlink:href="#DejaVuSans-72" x="737.5"/>
     <use xlink:href="#DejaVuSans-73" x="778.613281"/>
    </g>
    <!-- (City Feeds) -->
    <g style="fill: #1b1e26" transform="translate(348.725563 70.998281) scale(0.1 -0.1)">
     <defs>
      <path id="DejaVuSans-46" d="M 628 4666 
L 3309 4666 
L 3309 4134 
L 1259 4134 
L 1259 2759 
L 3109 2759 
L 3109 2228 
L 1259 2228 
L 1259 0 
L 628 0 
L 628 4666 
z
" transform="scale(0.015625)"/>
      <path id="DejaVuSans-64" d="M 2906 2969 
L 2906 4863 
L 3481 4863 
L 3481 0 
L 2906 0 
L 2906 525 
Q 2725 213 2448 61 
Q 2172 -91 1784 -91 
Q 1150 -91 751 415 
Q 353 922 353 1747 
Q 353 2572 751 3078 
Q 1150 3584 1784 3584 
Q 2172 3584 2448 3432 
Q 2725 3281 2906 2969 
z
M 947 1747 
Q 947 1113 1208 752 
Q 1469 391 1925 391 
Q 2381 391 2643 752 
Q 2906 1113 2906 1747 
Q 2906 2381 2643 2742 
Q 2381 3103 1925 3103 
Q 1469 3103 1208 2742 
Q 947 2381 947 1747 
z
" transform="scale(0.015625)"/>
     </defs>
     <use xlink:href="#DejaVuSans-28"/>
     <use xlink:href="#DejaVuSans-43" x="39.013672"/>
     <use xlink:href="#DejaVuSans-69" x="108.837891"/>
     <use xlink:href="#DejaVuSans-74" x="136.621094"/>
     <use xlink:href="#DejaVuSans-79" x="175.830078"/>
     <use xlink:href="#DejaVuSans-20" x="235.009766"/>
     <use xlink:href="#DejaVuSans-46" x="266.796875"/>
     <use xlink:href="#DejaVuSans-65" x="318.816406"/>
     <use xlink:href="#DejaVuSans-65" x="380.339844"/>
     <use xlink:href="#DejaVuSans-64" x="441.863281"/>
     <use xlink:href="#DejaVuSans-73" x="505.339844"/>
     <use xlink:href="#DejaVuSans-29" x="557.439453"/>
    </g>
   </g>
   <g id="text_5">
    <!-- Kinesis Streams -->
    <g style="fill: #1b1e26" transform="translate(123.92525 137.471375) scale(0.1 -0.1)">
     <defs>
      <path id="DejaVuSans-4b" d="M 628 4666 
L 1259 4666 
L 1259 2694 
L 3353 4666 
L 4166 4666 
L 1850 2491 
L 4331 0 
L 3500 0 
L 1259 2247 
L 1259 0 
L 628 0 
L 628 4666 
z
" transform="scale(0.015625)"/>
      <path id="DejaVuSans-6d" d="M 3328 2828 
Q 3544 3216 3844 3400 
Q 4144 3584 4550 3584 
Q 5097 3584 5394 3201 
Q 5691 2819 5691 2113 
L 5691 0 
L 5113 0 
L 5113 2094 
Q 5113 2597 4934 2840 
Q 4756 3084 4391 3084 
Q 3944 3084 3684 2787 
Q 3425 2491 3425 1978 
L 3425 0 
L 2847 0 
L 2847 2094 
Q 2847 2600 2669 2842 
Q 2491 3084 2119 3084 
Q 1678 3084 1418 2786 
Q 1159 2488 1159 1978 
L 1159 0 
L 581 0 
L 581 3500 
L 1159 3500 
L 1159 2956 
Q 1356 3278 1631 3431 
Q 1906 3584 2284 3584 
Q 2666 3584 2933 3390 
Q 3200 3197 3328 2828 
z
" transform="scale(0.015625)"/>
     </defs>
     <use xlink:href="#DejaVuSans-4b"/>
     <use xlink:href="#DejaVuSans-69" x="65.576172"/>
     <use xlink:href="#DejaVuSans-6e" x="93.359375"/>
     <use xlink:href="#DejaVuSans-65" x="156.738281"/>
     <use xlink:href="#DejaVuSans-73" x="218.261719"/>
     <use xlink:href="#DejaVuSans-69" x="270.361328"/>
     <use xlink:href="#DejaVuSans-73" x="298.144531"/>
     <use xlink:href="#DejaVuSans-20" x="350.244141"/>
     <use xlink:href="#DejaVuSans-53" x="382.03125"/>
     <use xlink:href="#DejaVuSans-74" x="445.507812"/>
     <use xlink:href="#DejaVuSans-72" x="484.716797"/>
     <use xlink:href="#DejaVuSans-65" x="523.580078"/>
     <use xlink:href="#DejaVuSans-61" x="585.103516"/>
     <use xlink:href="#DejaVuSans-6d" x="646.382812"/>
     <use xlink:href="#DejaVuSans-73" x="743.794922"/>
    </g>
   </g>
   <g id="text_6">
    <!-- Lambda ETL -->
    <g style="fill: #1b1e26" transform="translate(277.240906 131.872469) scale(0.1 -0.1)">
     <defs>
      <path id="DejaVuSans-62" d="M 3116 1747 
Q 3116 2381 2855 2742 
Q 2594 3103 2138 3103 
Q 1681 3103 1420 2742 
Q 1159 2381 1159 1747 
Q 1159 1113 1420 752 
Q 1681 391 2138 391 
Q 2594 391 2855 752 
Q 3116 1113 3116 1747 
z
M 1159 2969 
Q 1341 3281 1617 3432 
Q 1894 3584 2278 3584 
Q 2916 3584 3314 3078 
Q 3713 2572 3713 1747 
Q 3713 922 3314 415 
Q 2916 -91 2278 -91 
Q 1894 -91 1617 61 
Q 1341 213 1159 525 
L 1159 0 
L 581 0 
L 581 4863 
L 1159 4863 
L 1159 2969 
z
" transform="scale(0.015625)"/>
     </defs>
     <use xlink:href="#DejaVuSans-4c"/>
     <use xlink:href="#DejaVuSans-61" x="55.712891"/>
     <use xlink:href="#DejaVuSans-6d" x="116.992188"/>
     <use xlink:href="#DejaVuSans-62" x="214.404297"/>
     <use xlink:href="#DejaVuSans-64" x="277.880859"/>
     <use xlink:href="#DejaVuSans-61" x="341.357422"/>
     <use xlink:href="#DejaVuSans-20" x="402.636719"/>
     <use xlink:href="#DejaVuSans-45" x="434.423828"/>
     <use xlink:href="#DejaVuSans-54" x="497.607422"/>
     <use xlink:href="#DejaVuSans-4c" x="558.691406"/>
    </g>
    <!-- (Microservices) -->
    <g style="fill: #1b1e26" transform="translate(270.090125 143.070281) scale(0.1 -0.1)">
     <defs>
      <path id="DejaVuSans-4d" d="M 628 4666 
L 1569 4666 
L 2759 1491 
L 3956 4666 
L 4897 4666 
L 4897 0 
L 4281 0 
L 4281 4097 
L 3078 897 
L 2444 897 
L 1241 4097 
L 1241 0 
L 628 0 
L 628 4666 
z
" transform="scale(0.015625)"/>
     </defs>
     <use xlink:href="#DejaVuSans-28"/>
     <use xlink:href="#DejaVuSans-4d" x="39.013672"/>
     <use xlink:href="#DejaVuSans-69" x="125.292969"/>
     <use xlink:href="#DejaVuSans-63" x="153.076172"/>
     <use xlink:href="#DejaVuSans-72" x="208.056641"/>
     <use xlink:href="#DejaVuSans-6f" x="246.919922"/>
     <use xlink:href="#DejaVuSans-73" x="308.101562"/>
     <use xlink:href="#DejaVuSans-65" x="360.201172"/>
     <use xlink:href="#DejaVuSans-72" x="421.724609"/>
     <use xlink:href="#DejaVuSans-76" x="462.837891"/>
     <use xlink:href="#DejaVuSans-69" x="522.017578"/>
     <use xlink:href="#DejaVuSans-63" x="549.800781"/>
     <use xlink:href="#DejaVuSans-65" x="604.78125"/>
     <use xlink:href="#DejaVuSans-73" x="666.304688"/>
     <use xlink:href="#DejaVuSans-29" x="718.404297"/>
    </g>
   </g>
   <g id="text_7">
    <!-- S3 Data Lake -->
    <g style="fill: #1b1e26" transform="translate(416.0235 131.872469) scale(0.1 -0.1)">
     <defs>
      <path id="DejaVuSans-33" d="M 2597 2516 
Q 3050 2419 3304 2112 
Q 3559 1806 3559 1356 
Q 3559 666 3084 287 
Q 2609 -91 1734 -91 
Q 1441 -91 1130 -33 
Q 819 25 488 141 
L 488 750 
Q 750 597 1062 519 
Q 1375 441 1716 441 
Q 2309 441 2620 675 
Q 2931 909 2931 1356 
Q 2931 1769 2642 2001 
Q 2353 2234 1838 2234 
L 1294 2234 
L 1294 2753 
L 1863 2753 
Q 2328 2753 2575 2939 
Q 2822 3125 2822 3475 
Q 2822 3834 2567 4026 
Q 2313 4219 1838 4219 
Q 1578 4219 1281 4162 
Q 984 4106 628 3988 
L 628 4550 
Q 988 4650 1302 4700 
Q 1616 4750 1894 4750 
Q 2613 4750 3031 4423 
Q 3450 4097 3450 3541 
Q 3450 3153 3228 2886 
Q 3006 2619 2597 2516 
z
" transform="scale(0.015625)"/>
      <path id="DejaVuSans-6b" d="M 581 4863 
L 1159 4863 
L 1159 1991 
L 2875 3500 
L 3609 3500 
L 1753 1863 
L 3688 0 
L 2938 0 
L 1159 1709 
L 1159 0 
L 581 0 
L 581 4863 
z
" transform="scale(0.015625)"/>
     </defs>
     <use xlink:href="#DejaVuSans-53"/>
     <use xlink:href="#DejaVuSans-33" x="63.476562"/>
     <use xlink:href="#DejaVuSans-20" x="127.099609"/>
     <use xlink:href="#DejaVuSans-44" x="158.886719"/>
     <use xlink:href="#DejaVuSans-61" x="235.888672"/>
     <use xlink:href="#DejaVuSans-74" x="297.167969"/>
     <use xlink:href="#DejaVuSans-61" x="336.376953"/>
     <use xlink:href="#DejaVuSans-20" x="397.65625"/>
     <use xlink:href="#DejaVuSans-4c" x="429.443359"/>
     <use xlink:href="#DejaVuSans-61" x="485.15625"/>
     <use xlink:href="#DejaVuSans-6b" x="546.435547"/>
     <use xlink:href="#DejaVuSans-65" x="600.720703"/>
    </g>
    <!-- Raw → Curated → Features -->
    <g style="fill: #1b1e26" transform="translate(382.400062 143.070281) scale(0.1 -0.1)">
     <defs>
      <path id="DejaVuSans-52" d="M 2841 2188 
Q 3044 2119 3236 1894 
Q 3428 1669 3622 1275 
L 4263 0 
L 3584 0 
L 2988 1197 
Q 2756 1666 2539 1819 
Q 2322 1972 1947 1972 
L 1259 1972 
L 1259 0 
L 628 0 
L 628 4666 
L 2053 4666 
Q 2853 4666 3247 4331 
Q 3641 3997 3641 3322 
Q 3641 2881 3436 2590 
Q 3231 2300 2841 2188 
z
M 1259 4147 
L 1259 2491 
L 2053 2491 
Q 2509 2491 2742 2702 
Q 2975 2913 2975 3322 
Q 2975 3731 2742 3939 
Q 2509 4147 2053 4147 
L 1259 4147 
z
" transform="scale(0.015625)"/>
      <path id="DejaVuSans-77" d="M 269 3500 
L 844 3500 
L 1563 769 
L 2278 3500 
L 2956 3500 
L 3675 769 
L 4391 3500 
L 4966 3500 
L 4050 0 
L 3372 0 
L 2619 2869 
L 1863 0 
L 1184 0 
L 269 3500 
z
" transform="scale(0.015625)"/>
      <path id="DejaVuSans-2192" d="M 5050 2147 
L 5050 1866 
L 3822 638 
L 3447 1013 
L 4175 1741 
L 366 1741 
L 366 2272 
L 4175 2272 
L 3447 3000 
L 3822 3375 
L 5050 2147 
z
" transform="scale(0.015625)"/>
     </defs>
     <use xlink:href="#DejaVuSans-52"/>
     <use xlink:href="#DejaVuSans-61" x="67.232422"/>
     <use xlink:href="#DejaVuSans-77" x="128.511719"/>
     <use xlink:href="#DejaVuSans-20" x="210.298828"/>
     <use xlink:href="#DejaVuSans-2192" x="242.085938"/>
     <use xlink:href="#DejaVuSans-20" x="325.875"/>
     <use xlink:href="#DejaVuSans-43" x="357.662109"/>
     <use xlink:href="#DejaVuSans-75" x="427.486328"/>
     <use xlink:href="#DejaVuSans-72" x="490.865234"/>
     <use xlink:href="#DejaVuSans-61" x="531.978516"/>
     <use xlink:href="#DejaVuSans-74" x="593.257812"/>
     <use xlink:href="#DejaVuSans-65" x="632.466797"/>
     <use xlink:href="#DejaVuSans-64" x="693.990234"/>
     <use xlink:href="#DejaVuSans-20" x="757.466797"/>
     <use xlink:href="#DejaVuSans-2192" x="789.253906"/>
     <use xlink:href="#DejaVuSans-20" x="873.042969"/>
     <use xlink:href="#DejaVuSans-46" x="904.830078"/>
     <use xlink:href="#DejaVuSans-65" x="956.849609"/>
     <use xlink:href="#DejaVuSans-61" x="1018.373047"/>
     <use xlink:href="#DejaVuSans-74" x="1079.652344"/>
     <use xlink:href="#DejaVuSans-75" x="1118.861328"/>
     <use xlink:href="#DejaVuSans-72" x="1182.240234"/>
     <use xlink:href="#DejaVuSans-65" x="1221.103516"/>
     <use xlink:href="#DejaVuSans-73" x="1282.626953"/>
    </g>
   </g>
   <g id="text_8">
    <!-- SageMaker Training -->
    <g style="fill: #1b1e26" transform="translate(154.587875 203.944469) scale(0.1 -0.1)">
     <use xlink:href="#DejaVuSans-53"/>
     <use xlink:href="#DejaVuSans-61" x="63.476562"/>
     <use xlink:href="#DejaVuSans-67" x="124.755859"/>
     <use xlink:href="#DejaVuSans-65" x="188.232422"/>
     <use xlink:href="#DejaVuSans-4d" x="249.755859"/>
     <use xlink:href="#DejaVuSans-61" x="336.035156"/>
     <use xlink:href="#DejaVuSans-6b" x="397.314453"/>
     <use xlink:href="#DejaVuSans-65" x="451.599609"/>
     <use xlink:href="#DejaVuSans-72" x="513.123047"/>
     <use xlink:href="#DejaVuSans-20" x="554.236328"/>
     <use xlink:href="#DejaVuSans-54" x="586.023438"/>
     <use xlink:href="#DejaVuSans-72" x="632.357422"/>
     <use xlink:href="#DejaVuSans-61" x="673.470703"/>
     <use xlink:href="#DejaVuSans-69" x="734.75"/>
     <use xlink:href="#DejaVuSans-6e" x="762.533203"/>
     <use xlink:href="#DejaVuSans-69" x="825.912109"/>
     <use xlink:href="#DejaVuSans-6e" x="853.695312"/>
     <use xlink:href="#DejaVuSans-67" x="917.074219"/>
    </g>
    <!-- &amp; Model Registry -->
    <g style="fill: #1b1e26" transform="translate(161.056625 215.142281) scale(0.1 -0.1)">
     <defs>
      <path id="DejaVuSans-26" d="M 1556 2509 
Q 1272 2256 1139 2004 
Q 1006 1753 1006 1478 
Q 1006 1022 1337 719 
Q 1669 416 2169 416 
Q 2466 416 2725 514 
Q 2984 613 3213 813 
L 1556 2509 
z
M 1997 2859 
L 3584 1234 
Q 3769 1513 3872 1830 
Q 3975 2147 3994 2503 
L 4575 2503 
Q 4538 2091 4375 1687 
Q 4213 1284 3922 891 
L 4794 0 
L 4006 0 
L 3559 459 
Q 3234 181 2878 45 
Q 2522 -91 2113 -91 
Q 1359 -91 881 339 
Q 403 769 403 1441 
Q 403 1841 612 2192 
Q 822 2544 1241 2853 
Q 1091 3050 1012 3245 
Q 934 3441 934 3628 
Q 934 4134 1281 4442 
Q 1628 4750 2203 4750 
Q 2463 4750 2720 4694 
Q 2978 4638 3244 4525 
L 3244 3956 
Q 2972 4103 2725 4179 
Q 2478 4256 2266 4256 
Q 1938 4256 1733 4082 
Q 1528 3909 1528 3634 
Q 1528 3475 1620 3314 
Q 1713 3153 1997 2859 
z
" transform="scale(0.015625)"/>
     </defs>
     <use xlink:href="#DejaVuSans-26"/>
     <use xlink:href="#DejaVuSans-20" x="77.978516"/>
     <use xlink:href="#DejaVuSans-4d" x="109.765625"/>
     <use xlink:href="#DejaVuSans-6f" x="196.044922"/>
     <use xlink:href="#DejaVuSans-64" x="257.226562"/>
     <use xlink:href="#DejaVuSans-65" x="320.703125"/>
     <use xlink:href="#DejaVuSans-6c" x="382.226562"/>
     <use xlink:href="#DejaVuSans-20" x="410.009766"/>
     <use xlink:href="#DejaVuSans-52" x="441.796875"/>
     <use xlink:href="#DejaVuSans-65" x="506.779297"/>
     <use xlink:href="#DejaVuSans-67" x="568.302734"/>
     <use xlink:href="#DejaVuSans-69" x="631.779297"/>
     <use xlink:href="#DejaVuSans-73" x="659.5625"/>
     <use xlink:href="#DejaVuSans-74" x="711.662109"/>
     <use xlink:href="#DejaVuSans-72" x="750.871094"/>
     <use xlink:href="#DejaVuSans-79" x="791.984375"/>
    </g>
   </g>
   <g id="text_9">
    <!-- Inference (Hybrid) -->
    <g style="fill: #1b1e26" transform="translate(323.844344 203.944469) scale(0.1 -0.1)">
     <defs>
      <path id="DejaVuSans-48" d="M 628 4666 
L 1259 4666 
L 1259 2753 
L 3553 2753 
L 3553 4666 
L 4184 4666 
L 4184 0 
L 3553 0 
L 3553 2222 
L 1259 2222 
L 1259 0 
L 628 0 
L 628 4666 
z
" transform="scale(0.015625)"/>
     </defs>
     <use xlink:href="#DejaVuSans-49"/>
     <use xlink:href="#DejaVuSans-6e" x="29.492188"/>
     <use xlink:href="#DejaVuSans-66" x="92.871094"/>
     <use xlink:href="#DejaVuSans-65" x="128.076172"/>
     <use xlink:href="#DejaVuSans-72" x="189.599609"/>
     <use xlink:href="#DejaVuSans-65" x="228.462891"/>
     <use xlink:href="#DejaVuSans-6e" x="289.986328"/>
     <use xlink:href="#DejaVuSans-63" x="353.365234"/>
     <use xlink:href="#DejaVuSans-65" x="408.345703"/>
     <use xlink:href="#DejaVuSans-20" x="469.869141"/>
     <use xlink:href="#DejaVuSans-28" x="501.65625"/>
     <use xlink:href="#DejaVuSans-48" x="540.669922"/>
     <use xlink:href="#DejaVuSans-79" x="615.865234"/>
     <use xlink:href="#DejaVuSans-62" x="675.044922"/>
     <use xlink:href="#DejaVuSans-72" x="738.521484"/>
     <use xlink:href="#DejaVuSans-69" x="779.634766"/>
     <use xlink:href="#DejaVuSans-64" x="807.417969"/>
     <use xlink:href="#DejaVuSans-29" x="870.894531"/>
    </g>
    <!-- SageMaker Endpoint → ECS/EKS -->
    <g style="fill: #1b1e26" transform="translate(289.295906 215.142281) scale(0.1 -0.1)">
     <use xlink:href="#DejaVuSans-53"/>
     <use xlink:href="#DejaVuSans-61" x="63.476562"/>
     <use xlink:href="#DejaVuSans-67" x="124.755859"/>
     <use xlink:href="#DejaVuSans-65" x="188.232422"/>
     <use xlink:href="#DejaVuSans-4d" x="249.755859"/>
     <use xlink:href="#DejaVuSans-61" x="336.035156"/>
     <use xlink:href="#DejaVuSans-6b" x="397.314453"/>
     <use xlink:href="#DejaVuSans-65" x="451.599609"/>
     <use xlink:href="#DejaVuSans-72" x="513.123047"/>
     <use xlink:href="#DejaVuSans-20" x="554.236328"/>
     <use xlink:href="#DejaVuSans-45" x="586.023438"/>
     <use xlink:href="#DejaVuSans-6e" x="649.207031"/>
     <use xlink:href="#DejaVuSans-64" x="712.585938"/>
     <use xlink:href="#DejaVuSans-70" x="776.0625"/>
     <use xlink:href="#DejaVuSans-6f" x="839.539062"/>
     <use xlink:href="#DejaVuSans-69" x="900.720703"/>
     <use xlink:href="#DejaVuSans-6e" x="928.503906"/>
     <use xlink:href="#DejaVuSans-74" x="991.882812"/>
     <use xlink:href="#DejaVuSans-20" x="1031.091797"/>
     <use xlink:href="#DejaVuSans-2192" x="1062.878906"/>
     <use xlink:href="#DejaVuSans-20" x="1146.667969"/>
     <use xlink:href="#DejaVuSans-45" x="1178.455078"/>
     <use xlink:href="#DejaVuSans-43" x="1241.638672"/>
     <use xlink:href="#DejaVuSans-53" x="1311.462891"/>
     <use xlink:href="#DejaVuSans-2f" x="1374.939453"/>
     <use xlink:href="#DejaVuSans-45" x="1408.630859"/>
     <use xlink:href="#DejaVuSans-4b" x="1471.814453"/>
     <use xlink:href="#DejaVuSans-53" x="1537.390625"/>
    </g>
   </g>
   <g id="text_10">
    <!-- API Gateway -->
    <g style="fill: #1b1e26" transform="translate(110.649281 276.016469) scale(0.1 -0.1)">
     <defs>
      <path id="DejaVuSans-47" d="M 3809 666 
L 3809 1919 
L 2778 1919 
L 2778 2438 
L 4434 2438 
L 4434 434 
Q 4069 175 3628 42 
Q 3188 -91 2688 -91 
Q 1594 -91 976 548 
Q 359 1188 359 2328 
Q 359 3472 976 4111 
Q 1594 4750 2688 4750 
Q 3144 4750 3555 4637 
Q 3966 4525 4313 4306 
L 4313 3634 
Q 3963 3931 3569 4081 
Q 3175 4231 2741 4231 
Q 1884 4231 1454 3753 
Q 1025 3275 1025 2328 
Q 1025 1384 1454 906 
Q 1884 428 2741 428 
Q 3075 428 3337 486 
Q 3600 544 3809 666 
z
" transform="scale(0.015625)"/>
     </defs>
     <use xlink:href="#DejaVuSans-41"/>
     <use xlink:href="#DejaVuSans-50" x="68.408203"/>
     <use xlink:href="#DejaVuSans-49" x="128.710938"/>
     <use xlink:href="#DejaVuSans-20" x="158.203125"/>
     <use xlink:href="#DejaVuSans-47" x="189.990234"/>
     <use xlink:href="#DejaVuSans-61" x="267.480469"/>
     <use xlink:href="#DejaVuSans-74" x="328.759766"/>
     <use xlink:href="#DejaVuSans-65" x="367.96875"/>
     <use xlink:href="#DejaVuSans-77" x="429.492188"/>
     <use xlink:href="#DejaVuSans-61" x="511.279297"/>
     <use xlink:href="#DejaVuSans-79" x="572.558594"/>
    </g>
    <!-- (AuthN/Z) -->
    <g style="fill: #1b1e26" transform="translate(117.766469 287.214281) scale(0.1 -0.1)">
     <defs>
      <path id="DejaVuSans-4e" d="M 628 4666 
L 1478 4666 
L 3547 763 
L 3547 4666 
L 4159 4666 
L 4159 0 
L 3309 0 
L 1241 3903 
L 1241 0 
L 628 0 
L 628 4666 
z
" transform="scale(0.015625)"/>
      <path id="DejaVuSans-5a" d="M 359 4666 
L 4025 4666 
L 4025 4184 
L 1075 531 
L 4097 531 
L 4097 0 
L 288 0 
L 288 481 
L 3238 4134 
L 359 4134 
L 359 4666 
z
" transform="scale(0.015625)"/>
     </defs>
     <use xlink:href="#DejaVuSans-28"/>
     <use xlink:href="#DejaVuSans-41" x="39.013672"/>
     <use xlink:href="#DejaVuSans-75" x="107.421875"/>
     <use xlink:href="#DejaVuSans-74" x="170.800781"/>
     <use xlink:href="#DejaVuSans-68" x="210.009766"/>
     <use xlink:href="#DejaVuSans-4e" x="273.388672"/>
     <use xlink:href="#DejaVuSans-2f" x="348.193359"/>
     <use xlink:href="#DejaVuSans-5a" x="381.884766"/>
     <use xlink:href="#DejaVuSans-29" x="450.390625"/>
    </g>
   </g>
   <g id="text_11">
    <!-- Web Dashboard -->
    <g style="fill: #1b1e26" transform="translate(274.482813 276.016469) scale(0.1 -0.1)">
     <use xlink:href="#DejaVuSans-57"/>
     <use xlink:href="#DejaVuSans-65" x="93.001953"/>
     <use xlink:href="#DejaVuSans-62" x="154.525391"/>
     <use xlink:href="#DejaVuSans-20" x="218.001953"/>
     <use xlink:href="#DejaVuSans-44" x="249.789062"/>
     <use xlink:href="#DejaVuSans-61" x="326.791016"/>
     <use xlink:href="#DejaVuSans-73" x="388.070312"/>
     <use xlink:href="#DejaVuSans-68" x="440.169922"/>
     <use xlink:href="#DejaVuSans-62" x="503.548828"/>
     <use xlink:href="#DejaVuSans-6f" x="567.025391"/>
     <use xlink:href="#DejaVuSans-61" x="628.207031"/>
     <use xlink:href="#DejaVuSans-72" x="689.486328"/>
     <use xlink:href="#DejaVuSans-64" x="728.849609"/>
    </g>
    <!-- (Ops Center) -->
    <g style="fill: #1b1e26" transform="translate(282.065625 287.214281) scale(0.1 -0.1)">
     <defs>
      <path id="DejaVuSans-4f" d="M 2522 4238 
Q 1834 4238 1429 3725 
Q 1025 3213 1025 2328 
Q 1025 1447 1429 934 
Q 1834 422 2522 422 
Q 3209 422 3611 934 
Q 4013 1447 4013 2328 
Q 4013 3213 3611 3725 
Q 3209 4238 2522 4238 
z
M 2522 4750 
Q 3503 4750 4090 4092 
Q 4678 3434 4678 2328 
Q 4678 1225 4090 567 
Q 3503 -91 2522 -91 
Q 1538 -91 948 565 
Q 359 1222 359 2328 
Q 359 3434 948 4092 
Q 1538 4750 2522 4750 
z
" transform="scale(0.015625)"/>
     </defs>
     <use xlink:href="#DejaVuSans-28"/>
     <use xlink:href="#DejaVuSans-4f" x="39.013672"/>
     <use xlink:href="#DejaVuSans-70" x="117.724609"/>
     <use xlink:href="#DejaVuSans-73" x="181.201172"/>
     <use xlink:href="#DejaVuSans-20" x="233.300781"/>
     <use xlink:href="#DejaVuSans-43" x="265.087891"/>
     <use xlink:href="#DejaVuSans-65" x="334.912109"/>
     <use xlink:href="#DejaVuSans-6e" x="396.435547"/>
     <use xlink:href="#DejaVuSans-74" x="459.814453"/>
     <use xlink:href="#DejaVuSans-65" x="499.023438"/>
     <use xlink:href="#DejaVuSans-72" x="560.546875"/>
     <use xlink:href="#DejaVuSans-29" x="601.660156"/>
    </g>
   </g>
   <g id="text_12">
    <!-- Mobile Responders -->
    <g style="fill: #1b1e26" transform="translate(438.728844 276.016469) scale(0.1 -0.1)">
     <use xlink:href="#DejaVuSans-4d"/>
     <use xlink:href="#DejaVuSans-6f" x="86.279297"/>
     <use xlink:href="#DejaVuSans-62" x="147.460938"/>
     <use xlink:href="#DejaVuSans-69" x="210.9375"/>
     <use xlink:href="#DejaVuSans-6c" x="238.720703"/>
     <use xlink:href="#DejaVuSans-65" x="266.503906"/>
     <use xlink:href="#DejaVuSans-20" x="328.027344"/>
     <use xlink:href="#DejaVuSans-52" x="359.814453"/>
     <use xlink:href="#DejaVuSans-65" x="424.796875"/>
     <use xlink:href="#DejaVuSans-73" x="486.320312"/>
     <use xlink:href="#DejaVuSans-70" x="538.419922"/>
     <use xlink:href="#DejaVuSans-6f" x="601.896484"/>
     <use xlink:href="#DejaVuSans-6e" x="663.078125"/>
     <use xlink:href="#DejaVuSans-64" x="726.457031"/>
     <use xlink:href="#DejaVuSans-65" x="789.933594"/>
     <use xlink:href="#DejaVuSans-72" x="851.457031"/>
     <use xlink:href="#DejaVuSans-73" x="892.570312"/>
    </g>
    <!-- (App / PWA) -->
    <g style="fill: #1b1e26" transform="translate(456.327281 287.214281) scale(0.1 -0.1)">
     <use xlink:href="#DejaVuSans-28"/>
     <use xlink:href="#DejaVuSans-41" x="39.013672"/>
     <use xlink:href="#DejaVuSans-70" x="107.421875"/>
     <use xlink:href="#DejaVuSans-70" x="170.898438"/>
     <use xlink:href="#DejaVuSans-20" x="234.375"/>
     <use xlink:href="#DejaVuSans-2f" x="266.162109"/>
     <use xlink:href="#DejaVuSans-20" x="299.853516"/>
     <use xlink:href="#DejaVuSans-50" x="331.640625"/>
     <use xlink:href="#DejaVuSans-57" x="391.943359"/>
     <use xlink:href="#DejaVuSans-41" x="485.320312"/>
     <use xlink:href="#DejaVuSans-29" x="553.728516"/>
    </g>
   </g>
   <g id="text_13">
    <!-- Monitoring -->
    <g style="fill: #1b1e26" transform="translate(532.881719 192.856469) scale(0.1 -0.1)">
     <use xlink:href="#DejaVuSans-4d"/>
     <use xlink:href="#DejaVuSans-6f" x="86.279297"/>
     <use xlink:href="#DejaVuSans-6e" x="147.460938"/>
     <use xlink:href="#DejaVuSans-69" x="210.839844"/>
     <use xlink:href="#DejaVuSans-74" x="238.623047"/>
     <use xlink:href="#DejaVuSans-6f" x="277.832031"/>
     <use xlink:href="#DejaVuSans-72" x="339.013672"/>
     <use xlink:href="#DejaVuSans-69" x="380.126953"/>
     <use xlink:href="#DejaVuSans-6e" x="407.910156"/>
     <use xlink:href="#DejaVuSans-67" x="471.289062"/>
    </g>
    <!-- (CloudWatch + Logs) -->
    <g style="fill: #1b1e26" transform="translate(506.96375 204.054281) scale(0.1 -0.1)">
     <defs>
      <path id="DejaVuSans-2b" d="M 2944 4013 
L 2944 2272 
L 4684 2272 
L 4684 1741 
L 2944 1741 
L 2944 0 
L 2419 0 
L 2419 1741 
L 678 1741 
L 678 2272 
L 2419 2272 
L 2419 4013 
L 2944 4013 
z
" transform="scale(0.015625)"/>
     </defs>
     <use xlink:href="#DejaVuSans-28"/>
     <use xlink:href="#DejaVuSans-43" x="39.013672"/>
     <use xlink:href="#DejaVuSans-6c" x="108.837891"/>
     <use xlink:href="#DejaVuSans-6f" x="136.621094"/>
     <use xlink:href="#DejaVuSans-75" x="197.802734"/>
     <use xlink:href="#DejaVuSans-64" x="261.181641"/>
     <use xlink:href="#DejaVuSans-57" x="324.658203"/>
     <use xlink:href="#DejaVuSans-61" x="417.160156"/>
     <use xlink:href="#DejaVuSans-74" x="478.439453"/>
     <use xlink:href="#DejaVuSans-63" x="517.648438"/>
     <use xlink:href="#DejaVuSans-68" x="572.628906"/>
     <use xlink:href="#DejaVuSans-20" x="636.007812"/>
     <use xlink:href="#DejaVuSans-2b" x="667.794922"/>
     <use xlink:href="#DejaVuSans-20" x="751.583984"/>
     <use xlink:href="#DejaVuSans-4c" x="783.371094"/>
     <use xlink:href="#DejaVuSans-6f" x="837.333984"/>
     <use xlink:href="#DejaVuSans-67" x="898.515625"/>
     <use xlink:href="#DejaVuSans-73" x="961.992188"/>
     <use xlink:href="#DejaVuSans-29" x="1014.091797"/>
    </g>
   </g>
  </g>
 </g>
 <defs>
  <clipPath id="p65d0dfa001">
   <rect x="7.2" y="7.2" width="613.8" height="332.64"/>
  </clipPath>
 </defs>
</svg>
